<svg width="76" height="24" viewBox="0 0 76 24" fill="none" xmlns="http://www.w3.org/2000/svg">
<path d="M0.34375 23V0.65625H10.3438C14.9062 0.65625 17.1875 2.75521 17.1875 6.95312C17.1875 11.5052 14.0677 14.2604 7.82812 15.2188L7.23438 11.5312C10.9844 10.8542 12.8594 9.36979 12.8594 7.07812C12.8594 5.22396 11.9323 4.29688 10.0781 4.29688H4.48438V23H0.34375ZM18.7656 17.8906C18.7656 14.6302 21.1406 13 25.8906 13C27.0052 13 28.1198 13.1042 29.2344 13.3125V12.0781C29.2344 10.6094 28.1771 9.875 26.0625 9.875C24.2708 9.875 22.2812 10.1354 20.0938 10.6562V7.375C22.2812 6.85417 24.2708 6.59375 26.0625 6.59375C30.9375 6.59375 33.375 8.39583 33.375 12V23H30.9688L29.5 21.5312C28.0729 22.5104 26.5 23 24.7812 23C20.7708 23 18.7656 21.2969 18.7656 17.8906ZM29.2344 16.125C28.1927 15.9167 27.0781 15.8125 25.8906 15.8125C23.901 15.8125 22.9062 16.4896 22.9062 17.8438C22.9062 19.3021 23.7396 20.0312 25.4062 20.0312C26.7812 20.0312 28.0573 19.6042 29.2344 18.75V16.125ZM35.8906 6.59375H40.0625L42.1875 18.0156L45.9844 6.59375H49.5312L53.625 18.0156L55.4688 6.59375H59.7812L55.5 23H51.6094L47.75 11.3594L43.8438 23H39.8906L35.8906 6.59375ZM62.2969 22.2188V18.7812C64.1198 19.5104 66.224 19.875 68.6094 19.875C70.3906 19.875 71.2812 19.3021 71.2812 18.1562C71.2812 17.0625 70.6823 16.5156 69.4844 16.5156H66.5156C63.1823 16.5156 61.5156 14.875 61.5156 11.5938C61.5156 8.15625 63.9479 6.4375 68.8125 6.4375C70.875 6.4375 72.8177 6.75 74.6406 7.375V10.8125C72.8177 10.0833 70.8385 9.71875 68.7031 9.71875C66.4635 9.71875 65.3438 10.2917 65.3438 11.4375C65.3438 12.5312 65.9948 13.0781 67.2969 13.0781H69.9531C73.599 13.0781 75.4219 14.7188 75.4219 18C75.4219 21.4375 73.099 23.1562 68.4531 23.1562C66.1719 23.1562 64.1198 22.8438 62.2969 22.2188Z" fill="white"/>
</svg>
